<?xml version="1.0" encoding="UTF-8"?><svg id="solar_system" xmlns="http://www.w3.org/2000/svg" viewBox="0 0 128 128"><defs><style>.cls-1{fill:#262626;}</style></defs><g id="row2"><path id="Venus" class="cls-1" d="M64,127.6C28.7,127.6,0,99.1,0,64S28.7,.4,64,.4s64,28.5,64,63.6-28.7,63.6-64,63.6Zm0-121.5C31.9,6.1,5.7,32.1,5.7,64s26.1,57.9,58.3,57.9,58.3-26,58.3-57.9S96.1,6.1,64,6.1Zm3.6,117.7h-16.2l.2-1.1c.1-.3,6.2-30.1,37.4-50.9,26.8-17.9,24-42.4,24-42.7l-.4-3,2,2.2c.4,.4,9.6,10.6,9.6,21.3-.1,18.6-12.1,27.1-24.8,36.1-11.9,8.4-25.3,18-31.5,37.4l-.3,.7Zm-13.9-1.9h12.5c6.5-19.6,20.1-29.2,32-37.7,12.8-9.1,23.9-17,24-34.6,.1-7.2-4.6-14.4-7.3-17.9,0,2.7-.4,7.1-2,12.4-2.5,8-8.5,19.5-22.9,29.2-27.1,18.2-34.8,43-36.3,48.6Zm33.3,1.2c-1.6,0-3-.6-4.1-1.8-1.1-1.1-1.5-2.6-1.3-4.2,1.6-11.6,38.4-33.7,39.9-34.7l3.2-1.9-1.9,3.2c-.9,1.5-22.7,37.9-35.1,39.3-.2,0-.5,.1-.7,.1Zm32.1-37c-9.3,5.8-34.4,22.4-35.6,31.2-.1,1.1,.1,1.9,.8,2.7,.9,.9,1.9,1.3,3.3,1.1,9.3-1,25.7-25.8,31.5-35ZM38.5,118.6c-3.1,0-12.9-6.9-18.7-11.1l-.9-.7,.8-.8c.2-.2,20-19.5,29.5-32.5-14.2,7.1-38.3,21-38.6,21.1l-.9,.5-.5-.9c-5.8-11-5.3-12.2-5.2-12.6l.2-.4,.5-.2c11.5-3.9,31.6-12.5,50.3-24.2,22.9-14.4,37.3-29.5,41.7-43.8l.4-1.3,1.1,.8s4.4,3.2,8.7,4.7l.7,.2v.7c-1.2,22.4-14,33.2-28.7,45.7-14.3,12.2-30.6,25.9-38.9,53.9-.1,.4-.5,.8-.9,.9h-.6Zm-16.6-12c6.7,4.9,14.3,9.8,16.3,10.1,8.5-28.3,24.9-42.2,39.4-54.4,14.2-12.1,26.6-22.5,28-43.6-3-1.2-6-2.9-7.5-3.9C86.5,48.6,27,75.4,5.9,82.6c.4,1.6,2.5,6,4.6,10,4.9-2.8,29.1-16.5,41.1-22.3l3.1-1.5-1.8,2.8c-7.6,11.7-26.8,30.9-31,35ZM4.3,65.1l-.3-.8c-.1-.3-3.4-9.2,1.5-15.1,1.9-2.3,7.1-4.2,14.2-6.7,11.3-4,26.7-9.6,39.8-20.6,12.4-10.6,13.1-16.9,13.1-17l.1-1,1,.2,13.3,2.4-.4,1.1c-.2,.4-17.2,43.4-81.5,57.3l-.8,.2ZM74.3,6.1c-.6,2.3-3.2,8.4-13.6,17.2-13.4,11.2-29,16.8-40.4,20.9-6.6,2.4-11.8,4.2-13.4,6.1-3.4,4.2-2,10.4-1.4,12.5C62.5,50.1,81.3,14.4,84.3,7.8l-10-1.7ZM19.1,30.2c-1.2,0-2.2-.2-2.9-.6-.6-.3-2-1.4-1.1-3.7C18.7,17,51.7,3.3,60,2.7c1-.1,2.3,0,2.8,.9,.3,.7,.2,1.4-.4,2.3h0c-9.6,12.9-33.6,24.3-43.3,24.3ZM60.6,4.6c-1.4,0-4.8,.6-11.9,3.2-14,5.1-29.7,13.5-31.7,18.8-.4,1,0,1.2,.2,1.3,4.5,2.4,32.3-7.9,43.7-23.2h0l.1-.1h-.4Z"/></g></svg>