<?xml version="1.0" encoding="UTF-8"?><svg id="solar_system" xmlns="http://www.w3.org/2000/svg" viewBox="0 0 128 128"><defs><style>.cls-1{fill:#262626;}</style></defs><g id="row1"><path id="pluto" class="cls-1" d="M64,127.6C28.7,127.6,0,99.1,0,64S28.7,.4,64,.4s64,28.5,64,63.6-28.7,63.6-64,63.6Zm0-121.5C31.9,6.1,5.7,32.1,5.7,64s26.1,57.9,58.3,57.9,58.3-26,58.3-57.9S96.1,6.1,64,6.1ZM29.6,91.5c-5.4,0-9.9-4.4-9.9-9.8s4.4-9.8,9.9-9.8,9.9,4.4,9.9,9.8-4.4,9.8-9.9,9.8Zm0-17.7c-4.4,0-8,3.5-8,7.9s3.6,7.9,8,7.9,8-3.5,8-7.9-3.6-7.9-8-7.9Zm29.3,39.2c-9.3,0-16.9-7.5-16.9-16.8s7.6-16.8,16.9-16.8,16.9,7.6,16.9,16.8-7.6,16.8-16.9,16.8Zm0-31.7c-8.3,0-15,6.7-15,14.9s6.7,14.9,15,14.9,15-6.7,15-14.9-6.7-14.9-15-14.9Zm0-9.3c-4.4,0-8-3.6-8-8s3.6-8,8-8,8,3.6,8,8-3.6,8-8,8Zm0-14.1c-3.4,0-6.1,2.7-6.1,6.1s2.7,6.1,6.1,6.1,6.1-2.7,6.1-6.1-2.7-6.1-6.1-6.1Zm-19.1-23.9c-4.4,0-8-3.6-8-8s3.6-8,8-8,8,3.6,8,8-3.6,8-8,8Zm0-14c-3.4,0-6.1,2.7-6.1,6.1s2.7,6.1,6.1,6.1,6.1-2.7,6.1-6.1-2.7-6.1-6.1-6.1Zm53.6,72c-6.5,0-11.7-5.2-11.7-11.6s5.2-11.6,11.7-11.6,11.7,5.2,11.7,11.6-5.3,11.6-11.7,11.6Zm0-21.3c-5.4,0-9.8,4.4-9.8,9.7s4.4,9.7,9.8,9.7,9.8-4.4,9.8-9.7-4.4-9.7-9.8-9.7Zm-1.9-24.2c-6.5,0-11.7-5.2-11.7-11.6s5.2-11.7,11.7-11.7,11.7,5.2,11.7,11.6-5.3,11.7-11.7,11.7Zm0-21.4c-5.4,0-9.8,4.4-9.8,9.7s4.4,9.7,9.8,9.7,9.8-4.4,9.8-9.7-4.4-9.7-9.8-9.7Z"/></g></svg>