<?xml version="1.0" encoding="UTF-8"?><svg id="solar_system" xmlns="http://www.w3.org/2000/svg" viewBox="0 0 128 128"><defs><style>.cls-1{fill:#262626;}</style></defs><g id="row1"><path id="earth" class="cls-1" d="M64,.4C28.7,.4,0,28.9,0,64s28.7,63.6,64,63.6,64-28.5,64-63.6S99.3,.4,64,.4Zm0,121.5c-32.1,0-58.3-26-58.3-57.9,0-7.3,1.4-14.2,3.8-20.7,3.6,2.1,13-1.7,13-1.7,0,0,13.7-1.4,12.5,10.5-1.1,11.6,8.1,20.5,8.6,21-.1-.4-1.7-4.6-2.7-6.9-.8-2.3,10.1,10.8,10.1,10.8,0,0,5.9,3.3,8.6,3.6,2.6,.2,3.4,3.6,3.4,3.6l-3.4,4.1,6.2,6.9s-1.9,11-3.1,17.4c-.8,4.3,2.3,7.6,4.4,9.2-1,.1-2,.1-3.1,.1Zm49.7-27.6c-9.5,15.2-25.8,25.8-44.8,27.4-.1-3.5,.1-12.6,5.1-14.1,6.2-1.9,9.1-9.8,12-15.1,2.9-5.3,.2-6-3.1-6s-5.3-3.8-7.5-6.2c-2.1-2.3-12.2-1.9-16-2.3-3.8-.5-2.9-4.7-2.9-4.7,0,0-6.2-2.5-5.4-5.3,.8-2.9,7-.5,7-.5,0,0,13.5-11.5,12.8-13.7-.5-1.6-4.8,.4-7,1.5l6.7-3.6s1.2-4.5-1.4-7.6c-1.9-2.3-4.6-2.2-5.9-2.1l7.4-1.5s-2.6-3.3-1.7-6c1-2.6,.2-3.6-1.7-5.3-1.9-1.7-1.4-3.3-4.6-3.3s-3.8-3.6-6-2.1,2.9,6.9,.2,8.1c-2.6,1.2-2.4-4.3-4.5-7.6-2.1-3.3-.8,6.2-1.4,8.3-.6,2.1-8.7-.7-13.8-3.1-3.9-1.8-14.6-1.1-19.5-.7C28.4,15,45.2,6.1,64,6.1c1.8,0,3.6,.1,5.3,.2-.4,.7-.6,1.4-.3,2.1,1,2.7-6.7,1-4.6,3.6,2.2,2.6,5.3,3.5,8.2,6.7,2.9,3.1,3.1,7.2,3.4,10.3,.2,3.1-.5,6.5,2.2,9.8,2.6,3.3,4.1,9.3,4.8,4.1,.7-5.3,2.4-8.4,4.3-9.3s1.6-5.5,4.1-4.5c2.4,1,3.3,1.1,4.4-2.9s.6-7.2,0-9.3c-.2-.7-.1-1,.1-1.2,10.9,7.1,19.3,17.7,23.5,30.3-2,.7-4.2,.6-6.3,1.3-3.2,1.2-4.9,6.9-5.2,9.3-.2,2.4-2.1,7.4-2.1,7.4,0,0-7.8,2.5-8.2,8-.5,5.5,4.3,13.1,7.7,12.4,3.4-.7,9.6,.2,9.4,5-.2,2-.7,3.5-1,4.9Z"/></g></svg>