<?xml version="1.0" encoding="UTF-8"?><svg id="solar_system" xmlns="http://www.w3.org/2000/svg" viewBox="0 0 128 128"><defs><style>.cls-1{fill:#262626;}</style></defs><g id="row3"><path id="uranus" class="cls-1" d="M103.9,50.8c-5.6-17.5-22.2-30.3-41.7-30.3s-36.4,13-41.9,30.8C0,54.9,0,59.7,0,61.3c0,4.6,8.1,7.6,19,9.7,3.4,20.7,21.4,36.5,43.2,36.5s39.5-15.5,43.1-35.9c12.7-2,22.7-5.2,22.7-10.3,0-1.7,0-6.9-24.1-10.5Zm-85.4,13.2c0,1,0,1.9,.1,2.9-10-2-14.7-4.3-14.7-5.6,0-.6,2.7-3.4,15.4-5.8-.5,2.8-.8,5.6-.8,8.5Zm43.7,39.6c-19.3,0-35.5-13.8-39.1-31.9,13.3,2.1,29.6,2.8,40.9,2.8,10.2,0,24.6-.6,37.2-2.2-3.8,17.8-19.8,31.3-39,31.3Zm39.7-35.4c-9.4,1.3-21.9,2.3-37.9,2.3-18,0-31.7-1.3-41.4-2.9-.1-1.2-.2-2.4-.2-3.6,0-21.8,17.9-39.6,39.8-39.6s39.8,17.8,39.8,39.6c.1,1.4,0,2.8-.1,4.2Zm3.9-.6c.1-1.2,.1-2.4,.1-3.6,0-3.1-.3-6.2-1-9.1,15.7,2.5,19.1,5.7,19.1,6.4,.1,1.4-5.7,4.1-18.2,6.3ZM34.4,45.3c.7,0,1.3,.6,1.3,1.3s-.6,1.3-1.3,1.3-1.3-.6-1.3-1.3c0-.7,.6-1.3,1.3-1.3Zm13.1,1.3c0,.7,.6,1.3,1.3,1.3s1.3-.6,1.3-1.3-.6-1.3-1.3-1.3-1.3,.6-1.3,1.3Zm14.3,0c0,.7,.6,1.3,1.3,1.3s1.3-.6,1.3-1.3-.6-1.3-1.3-1.3-1.3,.6-1.3,1.3Zm14.4,0c0,.7,.6,1.3,1.3,1.3s1.3-.6,1.3-1.3-.6-1.3-1.3-1.3-1.3,.6-1.3,1.3Zm14.4,0c0,.7,.6,1.3,1.3,1.3s1.3-.6,1.3-1.3-.6-1.3-1.3-1.3-1.3,.6-1.3,1.3Zm-7.9-10.4c0,.7,.6,1.3,1.3,1.3s1.3-.6,1.3-1.3-.6-1.3-1.3-1.3-1.3,.6-1.3,1.3Zm-14.3,0c0,.7,.6,1.3,1.3,1.3s1.3-.6,1.3-1.3-.6-1.3-1.3-1.3-1.3,.6-1.3,1.3Zm-14.4,0c0,.7,.6,1.3,1.3,1.3s1.3-.6,1.3-1.3-.6-1.3-1.3-1.3-1.3,.6-1.3,1.3Zm-14.4,0c0,.7,.6,1.3,1.3,1.3s1.3-.6,1.3-1.3-.6-1.3-1.3-1.3-1.3,.6-1.3,1.3Zm20.9-7.8c0,.7,.6,1.3,1.3,1.3s1.3-.6,1.3-1.3-.6-1.3-1.3-1.3-1.3,.6-1.3,1.3Zm31.4,51.9c-.7,0-1.3-.6-1.3-1.3s.6-1.3,1.3-1.3,1.3,.6,1.3,1.3c0,.7-.6,1.3-1.3,1.3Zm-13.1-1.3c0-.7-.6-1.3-1.3-1.3s-1.3,.6-1.3,1.3,.6,1.3,1.3,1.3,1.3-.6,1.3-1.3Zm-14.4,0c0-.7-.6-1.3-1.3-1.3s-1.3,.6-1.3,1.3,.6,1.3,1.3,1.3,1.3-.6,1.3-1.3Zm-14.3,0c0-.7-.6-1.3-1.3-1.3s-1.3,.6-1.3,1.3,.6,1.3,1.3,1.3,1.3-.6,1.3-1.3Zm-14.4,0c0-.7-.6-1.3-1.3-1.3s-1.3,.6-1.3,1.3,.6,1.3,1.3,1.3,1.3-.6,1.3-1.3Zm7.8,10.4c0-.7-.6-1.3-1.3-1.3s-1.3,.6-1.3,1.3,.6,1.3,1.3,1.3,1.3-.6,1.3-1.3Zm14.4,0c0-.7-.6-1.3-1.3-1.3s-1.3,.6-1.3,1.3,.6,1.3,1.3,1.3,1.3-.6,1.3-1.3Zm14.4,0c0-.7-.6-1.3-1.3-1.3s-1.3,.6-1.3,1.3,.6,1.3,1.3,1.3,1.3-.6,1.3-1.3Zm14.3,0c0-.7-.6-1.3-1.3-1.3s-1.3,.6-1.3,1.3,.6,1.3,1.3,1.3,1.3-.6,1.3-1.3Zm-20.9,7.8c0-.7-.6-1.3-1.3-1.3s-1.3,.6-1.3,1.3,.6,1.3,1.3,1.3c.8,0,1.3-.6,1.3-1.3Z"/></g></svg>