<?xml version="1.0" encoding="UTF-8"?><svg id="solar_system" xmlns="http://www.w3.org/2000/svg" viewBox="0 0 128 128"><defs><style>.cls-1{fill:#262626;}</style></defs><g id="row1"><path id="Saturn" class="cls-1" d="M127.9,55c-1.1-6.6-15.5-8.2-27.5-8.3h-6.1c-.1-.2-.2-.3-.3-.5-4.8-8-12.4-13.6-21.5-15.9-9.1-2.3-18.5-.9-26.5,3.8s-13.7,12.3-16,21.3l-.3,1.2v-.1l-6,2.1C12.3,62.5-1,68.5,.1,75.1c.9,5.9,13.2,8.3,29.4,8.3,1.7,0,3.5,0,5.3-.1,4.8,7.2,12,12.2,20.5,14.4,2.9,.7,5.8,1.1,8.7,1.1,6.2,0,12.4-1.7,17.8-4.9,4-2.4,7.4-5.5,10.2-9.1,2.5-3.4,4.5-7.2,5.6-11.4,18-5.2,31.4-12,30.3-18.4ZM47.7,36.8c5-3,10.6-4.5,16.2-4.5,2.6,0,5.3,.3,7.9,1,1.1,.3,2.1,.6,3.2,1l-31.1,5.1c1.2-.9,2.4-1.8,3.8-2.6Zm-5.3,3.9l34.4-5.7c2.9,1.3,5.6,2.9,8,5l-48.4,8c1.6-2.7,3.6-5.1,6-7.3Zm-9.3,15.5c.6-2.5,1.5-4.8,2.7-7l50-8.3c2.1,2,4,4.3,5.6,6.9,2.2,3.6,3.6,7.6,4.2,11.6l-62.9,10.8c-.9-4.6-.8-9.3,.4-14Zm-2.8,17.4c-8.3-.1-12.9-1-13.5-2.1,.1-.7,2.5-3,12.1-6.2,.2,2.8,.6,5.6,1.4,8.3Zm-27.1,1c-.4-2.7,6.1-7.8,21.6-13l4.5-1.6c-.1,.6-.1,1.2-.2,1.9-14.3,4.6-15.6,7.9-15.3,9.9,.6,3.6,8.1,4.8,17.2,4.8h.4c.5,1.2,1,2.4,1.7,3.6-18.4,.5-29.4-2.2-29.9-5.6Zm77.1,16.6c-7.3,4.3-15.9,5.6-24.1,3.5-1.1-.3-2.1-.6-3.2-1l31.2-5.1c-1.3,.9-2.6,1.8-3.9,2.6Zm5.3-3.9l-34.5,5.7c-2.9-1.3-5.6-2.9-7.9-5l48.3-8c-1.6,2.7-3.6,5.1-5.9,7.3Zm6.5-8.5l-50,8.3c-1.3-1.2-2.5-2.5-3.5-3.9,8.9-.4,18.5-1.4,27.8-2.9,9.4-1.5,19-3.5,27.6-5.8-.5,1.5-1.1,2.9-1.9,4.3Zm3-7.8c-8.2,2.3-18,4.5-29.1,6.2-11,1.7-20.9,2.7-29.3,3-.7-1.2-1.3-2.4-1.9-3.6,13.8-.4,29.6-2.9,30.8-3,11.2-1.8,21.7-4,30.2-6.5-.2,1.2-.4,2.6-.7,3.9Zm-30.1-.5c-13,2-23.5,2.9-31.4,3-.3-.8-.5-1.6-.6-2.3l62.7-10.7c.1,1.1,.2,2.2,.2,3.3-7.6,2.2-17.9,4.7-30.9,6.7Zm32.6-16c10.2,.1,13.2,1.6,13.5,2.1-.2,1.2-4.3,3.6-12.1,6.2-.1-2.8-.6-5.6-1.4-8.3Zm.8,15.5c.2-1.3,.4-2.6,.5-3.9l.9-.3c13.6-4.5,14.7-7.7,14.4-9.7-.3-2.1-2.5-4.8-17.6-4.8-.2-.5-.4-1-.7-1.5h4.5c16.3,.2,24,3,24.5,5.7,.5,3.3-9,9.2-26.5,14.5Z"/></g></svg>