<?xml version="1.0" encoding="UTF-8"?><svg id="solar_system" xmlns="http://www.w3.org/2000/svg" viewBox="0 0 128 128"><defs><style>.cls-1{fill:#262626;}</style></defs><g id="row2"><path id="Mercury" class="cls-1" d="M64,127.6C28.7,127.6,0,99.1,0,64S28.7,.4,64,.4s64,28.5,64,63.6-28.7,63.6-64,63.6Zm0-121.5C31.9,6.1,5.7,32.1,5.7,64s26.1,57.9,58.3,57.9,58.3-26,58.3-57.9S96.1,6.1,64,6.1Zm-14.6,117.5c-5.1,0-9.3-4.2-9.3-9.3s4.2-9.3,9.3-9.3,9.3,4.2,9.3,9.3-4.2,9.3-9.3,9.3Zm0-16.7c-4.1,0-7.4,3.3-7.4,7.4s3.3,7.4,7.4,7.4,7.4-3.3,7.4-7.4c0-4.1-3.3-7.4-7.4-7.4Zm33.6,4.6c-3.6,0-6.5-2.9-6.5-6.4s2.9-6.4,6.5-6.4,6.5,2.9,6.5,6.4c-.1,3.5-3,6.4-6.5,6.4Zm0-11c-2.5,0-4.6,2-4.6,4.5s2,4.5,4.6,4.5,4.6-2,4.6-4.5c-.1-2.5-2.1-4.5-4.6-4.5Zm23.7,4.1c-5.1,0-9.3-4.2-9.3-9.3s4.2-9.3,9.3-9.3,9.3,4.2,9.3,9.3-4.2,9.3-9.3,9.3Zm0-16.6c-4.1,0-7.4,3.3-7.4,7.4s3.3,7.4,7.4,7.4,7.4-3.3,7.4-7.4-3.3-7.4-7.4-7.4Zm-50.2,12.5c-3.6,0-6.5-2.9-6.5-6.4s2.9-6.4,6.5-6.4,6.5,2.9,6.5,6.4-2.9,6.4-6.5,6.4Zm0-10.9c-2.5,0-4.6,2-4.6,4.5s2,4.5,4.6,4.5,4.6-2,4.6-4.5-2-4.5-4.6-4.5Zm-31.9,6.5c-3.6,0-6.5-2.9-6.5-6.4s2.9-6.4,6.5-6.4,6.5,2.9,6.5,6.4-2.9,6.4-6.5,6.4Zm0-10.9c-2.5,0-4.6,2-4.6,4.5s2,4.5,4.6,4.5,4.6-2,4.6-4.5-2.1-4.5-4.6-4.5Zm58.5,5.9c-5.4,0-9.8-4.4-9.8-9.7s4.4-9.7,9.8-9.7,9.8,4.4,9.8,9.7-4.4,9.7-9.8,9.7Zm0-17.6c-4.3,0-7.9,3.5-7.9,7.8s3.5,7.8,7.9,7.8,7.9-3.5,7.9-7.8-3.6-7.8-7.9-7.8Zm24.1,6.2c-3.6,0-6.5-2.9-6.5-6.4s2.9-6.4,6.5-6.4,6.5,2.9,6.5,6.4-2.9,6.4-6.5,6.4Zm0-10.9c-2.5,0-4.6,2-4.6,4.5s2,4.5,4.6,4.5,4.6-2,4.6-4.5c0-2.5-2.1-4.5-4.6-4.5Zm-56.6,10.9c-5.4,0-9.8-4.4-9.8-9.7s4.4-9.7,9.8-9.7,9.8,4.4,9.8,9.7-4.4,9.7-9.8,9.7Zm0-17.6c-4.3,0-7.9,3.5-7.9,7.8s3.5,7.8,7.9,7.8,7.9-3.5,7.9-7.8-3.6-7.8-7.9-7.8Zm45.8-1.4c-5.4,0-9.8-4.4-9.8-9.7s4.4-9.7,9.8-9.7,9.8,4.4,9.8,9.7-4.4,9.7-9.8,9.7Zm0-17.6c-4.3,0-7.9,3.5-7.9,7.8s3.5,7.8,7.9,7.8,7.9-3.5,7.9-7.8-3.5-7.8-7.9-7.8ZM18.7,60c-3.6,0-6.5-2.9-6.5-6.4s2.9-6.4,6.5-6.4,6.5,2.9,6.5,6.4-3,6.4-6.5,6.4Zm0-10.9c-2.5,0-4.6,2-4.6,4.5s2,4.5,4.6,4.5,4.6-2,4.6-4.5-2.1-4.5-4.6-4.5Zm53.3,7.6c-3.6,0-6.5-2.9-6.5-6.4s2.9-6.4,6.5-6.4,6.5,2.9,6.5,6.4-3,6.4-6.5,6.4Zm0-10.9c-2.5,0-4.6,2-4.6,4.5s2,4.5,4.6,4.5,4.6-2,4.6-4.5-2.1-4.5-4.6-4.5Zm-34.8,2.1c-5.7,0-10.3-4.6-10.3-10.2s4.6-10.2,10.3-10.2,10.3,4.5,10.3,10.2-4.6,10.2-10.3,10.2Zm0-18.5c-4.6,0-8.4,3.7-8.4,8.3s3.7,8.3,8.4,8.3,8.4-3.7,8.4-8.3-3.8-8.3-8.4-8.3Zm55.7,5.5c-3.6,0-6.5-2.9-6.5-6.4s2.9-6.4,6.5-6.4,6.5,2.9,6.5,6.4-2.9,6.4-6.5,6.4Zm0-11c-2.5,0-4.6,2-4.6,4.5s2,4.5,4.6,4.5,4.6-2,4.6-4.5-2.1-4.5-4.6-4.5Zm-23,6.9c-5.4,0-9.8-4.4-9.8-9.7s4.4-9.7,9.8-9.7,9.8,4.4,9.8,9.7-4.4,9.7-9.8,9.7Zm0-17.6c-4.3,0-7.9,3.5-7.9,7.8s3.5,7.8,7.9,7.8,7.9-3.5,7.9-7.8-3.5-7.8-7.9-7.8Zm-21.6,12.4c-3.6,0-6.5-2.9-6.5-6.4s2.9-6.4,6.5-6.4,6.5,2.9,6.5,6.4-2.9,6.4-6.5,6.4Zm0-11c-2.5,0-4.6,2-4.6,4.5s2,4.5,4.6,4.5,4.6-2,4.6-4.5-2.1-4.5-4.6-4.5Z"/></g></svg>