<?xml version="1.0" encoding="UTF-8"?><svg id="solar_system" xmlns="http://www.w3.org/2000/svg" viewBox="0 0 128 128"><defs><style>.cls-1{fill:#262626;}</style></defs><g id="row1"><path id="sun" class="cls-1" d="M64,113.7c-27.6,0-50.1-22.4-50.1-49.8S36.4,14.1,64,14.1s50.1,22.4,50.1,49.8-22.5,49.8-50.1,49.8Zm0-94.4c-24.7,0-44.9,20-44.9,44.6s20.1,44.6,44.9,44.6,44.9-20,44.9-44.6-20.2-44.6-44.9-44.6Zm-.8,108.7l-7.3-7.2-8.5,5-5-8.4-9.1,2.8-3-9.7-9.9,.5-.5-9.6-9.3-1.7,1.8-10-9-4.1,4-8.7-7.4-5.6,6.3-8L.2,55.5l7.7-6-3.9-8.5,9.3-4.2-1.9-9.8,9.5-1.7,.5-9.3,10.2,.5,2.9-9.4,9.6,2.9L49.1,1.7l8.7,5.2,7-6.9,7.3,7.2,8.5-5,5,8.4,9.1-2.8,3,9.7,9.9-.5,.5,9.6,9.3,1.7-1.8,10,9,4.1-4,8.7,7.4,5.7-6.3,8,6.1,7.8-7.7,6,3.9,8.5-9.3,4.2,1.8,9.7-9.5,1.7-.5,9.3-10.2-.5-2.9,9.4-9.6-2.9-5,8.3-8.7-5.2-6.9,6.9Zm-7-9.5l7,6.9,6.7-6.7,8.4,5,4.8-7.9,9.2,2.8,2.8-9,9.8,.5,.5-8.9,9.1-1.7-1.7-9.3,8.9-4.1-3.8-8.2,7.4-5.8-5.9-7.4,6-7.7-7.1-5.5,3.8-8.4-8.6-3.9,1.7-9.6-8.9-1.6-.5-9.3-9.5,.5-2.8-9.2-8.7,2.7-4.8-8.1-8.2,4.8-7-6.9-6.7,6.7-8.4-5-4.8,7.9-9.2-2.8-2.8,9-9.8-.5-.5,8.9-9.1,1.7,1.7,9.3-8.9,4.1,3.8,8.2-7.4,5.8,5.9,7.4-6,7.7,7.1,5.5-3.8,8.4,8.6,3.9-1.7,9.6,8.9,1.6,.5,9.3,9.5-.5,2.9,9.3,8.7-2.7,4.8,8.1,8.1-4.9Z"/></g></svg>