<?xml version="1.0" encoding="UTF-8"?><svg id="solar_system" xmlns="http://www.w3.org/2000/svg" viewBox="0 0 128 128"><defs><style>.cls-1{fill:#262626;}</style></defs><g id="row3"><path id="neptune" class="cls-1" d="M64,.4C28.7,.4,0,28.9,0,64s28.7,63.6,64,63.6,64-28.5,64-63.6S99.3,.4,64,.4Zm0,5.7c8,0,15.7,1.6,22.6,4.6-9,15.3-28.9,23.3-44.4,27.3-14.3,3.7-27.5,4.8-32.5,5.1C18.1,21.5,39.3,6.1,64,6.1ZM8.9,45.1c4.4-.2,18.5-1.3,33.7-5.2,22.6-5.9,38.3-15.7,45.8-28.5,6.7,3.1,12.7,7.4,17.7,12.6C75.8,67,18.8,64.6,5.7,63.4c.1-6.4,1.2-12.6,3.2-18.3Zm-3.1,20.2c2.5,.2,6.5,.5,11.6,.5,22.3,0,65-5,90.1-40.3,5.8,6.5,10.2,14.3,12.7,23C93.2,81.3,24.3,85.1,9.9,85.5c-2.5-6.3-4-13.1-4.1-20.2Zm58.2,56.6c-10.5,0-20.3-2.8-28.8-7.6h2.2c15.4,0,46.6-2.7,77.1-21.5-10,17.4-28.9,29.1-50.5,29.1Zm52.4-32.5c-35.4,23.1-72.5,23.5-84.5,22.9h0c-4.2-2.8-8-6.1-11.3-9.8,14.9-.5,63.6-4.1,100.7-27.8-1,5.2-2.7,10.1-4.9,14.7Zm-97.4,11.3c-3.3-4-6.1-8.5-8.3-13.3,16-.5,82.4-4.7,110-36.7,1,4.3,1.6,8.8,1.6,13.4,0,2.8-.2,5.5-.6,8.2-38.3,25.1-90.1,28.1-102.7,28.4Z"/></g></svg>