<?xml version="1.0" encoding="UTF-8"?><svg id="solar_system" xmlns="http://www.w3.org/2000/svg" viewBox="0 0 128 128"><defs><style>.cls-1{fill:#262626;}</style></defs><g id="row2"><path id="Mars" class="cls-1" d="M64,.4C28.7,.4,0,28.9,0,64s28.7,63.6,64,63.6,64-28.5,64-63.6S99.3,.4,64,.4Zm0,121.5c-32.1,0-58.3-26-58.3-57.9,0-12.3,3.9-23.7,10.5-33,.2,.8,1,1.5,1.9,1.5h52.1c1.1,0,1.9-.9,1.9-1.9,0-1.1-.9-1.9-1.9-1.9H17.9C28.6,14.9,45.3,6.1,64,6.1c32.1,0,58.3,26,58.3,57.9s-26.2,57.9-58.3,57.9ZM59,14.1h-18.5c-1.1,0-1.9,.9-1.9,1.9s.9,1.9,1.9,1.9h18.5c1.1,0,1.9-.9,1.9-1.9s-.8-1.9-1.9-1.9Zm33.2,0h-25.6c-1.1,0-1.9,.9-1.9,1.9s.9,1.9,1.9,1.9h25.6c1.1,0,1.9-.9,1.9-1.9s-.9-1.9-1.9-1.9Zm11.8,14.5h-24.6c-1.1,0-1.9,.8-1.9,1.9,0,1,.9,1.9,1.9,1.9h24.6c1.1,0,1.9-.9,1.9-1.9s-.8-1.9-1.9-1.9ZM36.7,45.2H12.6c-1.1,0-1.9,.9-1.9,1.9,0,1.1,.9,1.9,1.9,1.9h24.1c1.1,0,1.9-.8,1.9-1.9,0-1-.9-1.9-1.9-1.9Zm19.1,0h-8.8c-1.1,0-1.9,.9-1.9,1.9,0,1.1,.9,1.9,1.9,1.9h8.8c1.1,0,1.9-.8,1.9-1.9,0-1-.9-1.9-1.9-1.9Zm27.4,0h-21.7c-1.1,0-1.9,.9-1.9,1.9,0,1.1,.8,1.9,1.9,1.9h21.7c1.1,0,1.9-.8,1.9-1.9,0-1-.8-1.9-1.9-1.9Zm33.7,0h-27c-1.1,0-1.9,.9-1.9,1.9,0,1.1,.9,1.9,1.9,1.9h27c1.1,0,1.9-.8,1.9-1.9,0-1-.8-1.9-1.9-1.9ZM21,63H9.2c-1.1,0-1.9,.9-1.9,1.9s.9,1.9,1.9,1.9h11.8c1.1,0,1.9-.9,1.9-1.9s-.9-1.9-1.9-1.9Zm20.8,0h-12.7c-1.1,0-1.9,.9-1.9,1.9s.9,1.9,1.9,1.9h12.8c1.1,0,1.9-.9,1.9-1.9-.1-1-.9-1.9-2-1.9Zm36.1,0h-28c-1.1,0-1.9,.9-1.9,1.9s.8,1.9,1.9,1.9h28c1.1,0,1.9-.9,1.9-1.9s-.9-1.9-1.9-1.9Zm41.9,0h-29.9c-1.1,0-1.9,.9-1.9,1.9s.9,1.9,1.9,1.9h29.9c1.1,0,1.9-.9,1.9-1.9,0-1-.9-1.9-1.9-1.9Zm-75.7,18H12.6c-1.1,0-1.9,.9-1.9,1.9s.9,1.9,1.9,1.9h31.5c1.1,0,1.9-.9,1.9-1.9s-.9-1.9-1.9-1.9Zm72.8,0H51.4c-1.1,0-1.9,.9-1.9,1.9s.9,1.9,1.9,1.9H117c1.1,0,1.9-.9,1.9-1.9-.1-1-.9-1.9-2-1.9Zm-51.6,16.9H21.6c-1.1,0-1.9,.8-1.9,1.9,0,1,.9,1.9,1.9,1.9h43.7c1.1,0,1.9-.9,1.9-1.9,0-1.1-.8-1.9-1.9-1.9Zm39.5,0h-29.9c-1.1,0-1.9,.8-1.9,1.9,0,1,.8,1.9,1.9,1.9h29.9c1.1,0,1.9-.9,1.9-1.9,0-1.1-.8-1.9-1.9-1.9Zm-21.6,14H43.5c-1.1,0-1.9,.9-1.9,1.9s.8,1.9,1.9,1.9h39.8c1.1,0,1.9-.9,1.9-1.9s-.9-1.9-2-1.9Z"/></g></svg>