<?xml version="1.0" encoding="UTF-8"?><svg id="solar_system" xmlns="http://www.w3.org/2000/svg" viewBox="0 0 128 128"><defs><style>.cls-1{fill:#262626;}</style></defs><g id="row3"><path id="moon" class="cls-1" d="M104.1,117.7c-16.9-12.5-27.1-32.3-27.1-53.7s10.2-41.1,27.1-53.6c1.8-1.3,3.7-2.6,5.7-3.8-2.1-1-4.3-1.9-6.5-2.6-6.7-2.4-13.8-3.5-21.1-3.5C46.9,.5,18.2,29,18.2,64.1s28.7,63.6,64,63.6c7.3,0,14.4-1.2,21.1-3.5,2.2-.7,4.4-1.6,6.5-2.7-2-1.3-3.8-2.5-5.7-3.8Zm-21.9,4.2c-32.1,0-58.3-26-58.3-57.9S50.1,6.1,82.2,6.1c5.3,0,10.4,.7,15.4,2.1-16.5,13.6-26.4,34-26.4,55.8s9.8,42.3,26.4,55.9c-4.9,1.3-10.1,2-15.4,2Z"/></g></svg>