<?xml version="1.0" encoding="UTF-8"?><svg id="solar_system" xmlns="http://www.w3.org/2000/svg" viewBox="0 0 128 128"><defs><style>.cls-1{fill:#262626;}</style></defs><g id="row2"><path id="Jupiter" class="cls-1" d="M127,52.5v.3c-.1-.4-.2-.9-.2-1.3,.1,.3,.2,.6,.2,1Zm1,11.5c0,35.1-28.7,63.6-64,63.6S0,99.1,0,64,28.7,.4,64,.4c31,0,56.9,22,62.8,51.1,.1,.4,.2,.9,.2,1.3h0c.7,3.6,1,7.4,1,11.2ZM30.9,16.4H97.2c-9.5-6.5-20.9-10.3-33.2-10.3s-23.7,3.8-33.1,10.3Zm-13,12.2H110.1c-2.4-3.1-5.1-5.9-8-8.4H26c-3,2.5-5.7,5.3-8.1,8.4ZM7.3,50.6H120.7c-1.6-6.6-4.3-12.7-7.9-18.2H15.2c-3.6,5.5-6.3,11.6-7.9,18.2ZM91.9,114.8H36.1c8.3,4.5,17.8,7.1,27.9,7.1s19.6-2.6,27.9-7.1Zm14-10.6H22.1c2.4,2.5,5.1,4.8,7.9,6.8H98c2.8-2,5.5-4.3,7.9-6.8Zm15.8-32.5H6.3c.6,4.9,1.9,9.5,3.7,14H44.9c1.1,0,1.9,.8,1.9,1.9,0,1-.9,1.9-1.9,1.9H11.7c1.9,3.9,4.3,7.6,7,10.9H109.3c2.7-3.3,5.1-7,7-10.9h-26.5c-1.1,0-1.9-.9-1.9-1.9,0-1.1,.9-1.9,1.9-1.9h28.2c1.8-4.4,3.1-9.1,3.7-14Zm.6-7.7c0-3.3-.3-6.5-.8-9.6H6.6c-.6,3.1-.9,6.3-.9,9.6,0,1.3,0,2.6,.1,3.9H122.1c.1-1.3,.2-2.6,.2-3.9Zm-53.9,31.3c4-.3,7.8-1.3,10.6-2.8,4.5-2.3,5-4.9,4.8-6.3h0c-.4-5.1-8.8-7-16.8-6.3-4,.3-7.8,1.3-10.6,2.8-4.5,2.3-5,4.9-4.8,6.3,.1,1.4,1,3.9,5.9,5.4,2.2,.7,5,1.1,7.9,1.1,1-.1,2-.1,3-.2Zm11.7-8.8h0c0,.6-.8,1.6-2.8,2.6-2.3,1.2-5.7,2.1-9.2,2.4s-7,0-9.5-.8c-2.1-.7-3.1-1.6-3.2-2.1,0-.6,.8-1.6,2.8-2.6,2.3-1.2,5.7-2.1,9.2-2.4,1-.1,1.9-.1,2.8-.1,6.1,0,9.8,1.8,9.9,3Z"/></g></svg>